<?xml version="1.0" encoding="UTF-8" standalone="no"?>
<!DOCTYPE svg PUBLIC "-//W3C//DTD SVG 1.1//EN" "http://www.w3.org/Graphics/SVG/1.1/DTD/svg11.dtd">
<svg width="100%" height="100%" viewBox="0 0 16 16" version="1.1" xmlns="http://www.w3.org/2000/svg" xmlns:xlink="http://www.w3.org/1999/xlink" xml:space="preserve" xmlns:serif="http://www.serif.com/" style="fill-rule:evenodd;clip-rule:evenodd;stroke-linejoin:round;stroke-miterlimit:2;">
    <path id="path1" d="M5.5,9C4.672,9 4,9.672 4,10.5L4,12L2,12L2,14L7.229,14L7.229,10.113L9.682,10.113L9.682,9L5.5,9Z" style="fill:rgb(224,224,224);fill-rule:nonzero;"/>
    <path id="path2" d="M7,1L7,4.133L5.555,3.168L4.445,4.832L7.445,6.832C7.781,7.056 8.219,7.056 8.555,6.832L11.555,4.832L10.445,3.168L9,4.133L9,1L7,1Z" style="fill:rgb(224,224,224);fill-rule:nonzero;"/>
    <path id="rect2" d="M11.003,8.983L11.003,11.436L8.55,11.436L8.55,13.27L11.003,13.27L11.003,15.727L12.837,15.727L12.837,13.27L15.29,13.27L15.29,11.436L12.837,11.436L12.837,8.983L11.003,8.983Z" style="fill:rgb(224,224,224);fill-rule:nonzero;"/>
</svg>
